<svg width="656" height="655" viewBox="0 0 656 655" fill="none" xmlns="http://www.w3.org/2000/svg">
<circle cx="328" cy="327.5" r="327.5" fill="#0BC197"/>
<path d="M298.395 320.572L298.243 320.686L298.098 320.81C291.457 326.488 287.314 336.24 284.746 348.488L282.472 359.335L292.798 355.31C297.626 353.428 302.673 351.683 307.941 350.077C309.784 349.697 313.491 349.059 317.936 348.294C320.056 347.929 322.344 347.536 324.678 347.127C331.757 345.888 339.561 344.465 342.905 343.436L347.499 342.022L347.121 337.23L345.197 312.836L344.697 306.503L338.403 307.364L317.497 310.222L316.792 310.318L316.13 310.576C309.961 312.981 304.049 316.328 298.395 320.572Z" fill="white" stroke="white" stroke-width="12"/>
<path d="M317.863 339.911L316.569 348.553L325.099 346.657C332.725 344.961 340.38 343.49 348.063 342.244C356.973 340.799 367.532 339.142 379.742 337.273C390.07 335.692 402.579 333.941 417.277 332.018C414.874 346.515 412.71 360.334 410.784 373.473C408.475 388.67 406.694 400.937 405.446 410.262L405.444 410.278L405.442 410.294C403.594 424.681 402.532 438.095 402.265 450.529C401.962 462.583 402.309 472.744 403.358 480.932C404.89 492.88 408.5 502.622 415.174 508.822C422.063 515.221 432.506 517.5 444.896 517.187L452.571 516.993L450.528 509.592C450.004 507.693 449.44 505.508 448.836 503.033L447.729 494.393C446.354 483.667 445.546 469.305 445.34 451.225C445.433 433.188 446.53 411.187 448.646 385.196L448.65 385.144L448.653 385.091C449.253 375.679 450.094 365.772 451.176 355.369L451.178 355.35L451.179 355.331C452.087 346.03 453.077 336.489 454.151 326.709C458.983 325.85 463.839 324.621 468.717 323.027L468.847 322.985L468.975 322.937C476.542 320.078 483.283 314.09 489.36 305.855L497.697 294.555L483.769 296.341C478.55 297.01 473.161 297.555 467.601 297.975C464.347 298.032 461.002 298.154 457.567 298.34L464.932 242.564C467.997 221.572 471.121 202.253 474.303 184.606L474.306 184.591L474.308 184.576C477.456 166.606 480.396 151.919 483.126 140.482L485.142 132.033L476.527 133.138C470.785 133.873 465.849 136.634 461.806 140.986L461.718 141.08L461.634 141.179C458.36 145.023 455.756 149.175 453.868 153.633L459.243 155.909L453.868 153.633C452.209 157.551 450.893 160.882 449.945 163.597L449.924 163.657L449.904 163.718C447.844 170.043 445.168 180.659 441.886 195.368L441.878 195.404L441.87 195.44C438.837 209.866 435.515 226.75 431.905 246.087L431.897 246.131L431.89 246.174C428.853 263.875 425.723 281.845 422.499 300.083C412.334 300.405 401.655 301.02 390.465 301.928C377.655 302.65 364.173 303.92 350.02 305.734C345.468 306.318 340.936 307.051 336.423 307.933C333.106 308.362 329.801 308.882 326.507 309.492L322.3 310.272L321.667 314.503L317.863 339.911Z" fill="white" stroke="white" stroke-width="12"/>
<mask id="path-4-outside-1_3_94" maskUnits="userSpaceOnUse" x="160.142" y="125.116" width="242" height="405" fill="black">
<rect fill="white" x="160.142" y="125.116" width="242" height="405"/>
<path fill-rule="evenodd" clip-rule="evenodd" d="M362.694 201.653C377.763 198.803 389.16 185.567 389.16 169.669C389.16 151.69 374.585 137.116 356.607 137.116C338.629 137.116 324.054 151.69 324.054 169.669C324.054 182.207 331.143 193.09 341.532 198.528L304.378 449.577C304.378 449.577 295.354 499.778 246.002 496.683C196.649 493.588 192.073 452.794 192.073 422.064L222.304 435.423C199.278 416.911 186.617 363.874 183.165 339.67L172.398 418.658C168.732 485.081 204.91 517.867 246.002 517.867C302.137 517.867 317.965 487.342 326.114 452.794L363.269 201.738L362.694 201.653ZM387.187 169.669C387.187 186.557 373.496 200.248 356.607 200.248C339.718 200.248 326.027 186.557 326.027 169.669C326.027 152.78 339.718 139.089 356.607 139.089C373.496 139.089 387.187 152.78 387.187 169.669Z"/>
</mask>
<path fill-rule="evenodd" clip-rule="evenodd" d="M362.694 201.653C377.763 198.803 389.16 185.567 389.16 169.669C389.16 151.69 374.585 137.116 356.607 137.116C338.629 137.116 324.054 151.69 324.054 169.669C324.054 182.207 331.143 193.09 341.532 198.528L304.378 449.577C304.378 449.577 295.354 499.778 246.002 496.683C196.649 493.588 192.073 452.794 192.073 422.064L222.304 435.423C199.278 416.911 186.617 363.874 183.165 339.67L172.398 418.658C168.732 485.081 204.91 517.867 246.002 517.867C302.137 517.867 317.965 487.342 326.114 452.794L363.269 201.738L362.694 201.653ZM387.187 169.669C387.187 186.557 373.496 200.248 356.607 200.248C339.718 200.248 326.027 186.557 326.027 169.669C326.027 152.78 339.718 139.089 356.607 139.089C373.496 139.089 387.187 152.78 387.187 169.669Z" fill="white"/>
<path d="M362.694 201.653L360.464 189.862L360.937 213.524L362.694 201.653ZM341.532 198.528L353.402 200.285L354.651 191.85L347.097 187.896L341.532 198.528ZM304.378 449.577L316.189 451.7L316.222 451.518L316.249 451.334L304.378 449.577ZM246.002 496.683L245.251 508.659L245.251 508.659L246.002 496.683ZM192.073 422.064L196.924 411.088L180.073 403.642V422.064H192.073ZM222.304 435.423L217.454 446.399L229.823 426.071L222.304 435.423ZM183.165 339.67L195.045 337.976L171.275 338.049L183.165 339.67ZM172.398 418.658L160.508 417.038L160.443 417.516L160.416 417.997L172.398 418.658ZM246.002 517.867L246.002 529.867L246.002 529.867L246.002 517.867ZM326.114 452.794L337.794 455.549L337.911 455.054L337.985 454.551L326.114 452.794ZM363.269 201.738L375.14 203.495L376.897 191.624L365.026 189.868L363.269 201.738ZM364.924 213.444C385.555 209.542 401.16 191.44 401.16 169.669H377.16C377.16 179.693 369.971 188.064 360.464 189.862L364.924 213.444ZM401.16 169.669C401.16 145.063 381.213 125.116 356.607 125.116V149.116C367.958 149.116 377.16 158.318 377.16 169.669H401.16ZM356.607 125.116C332.001 125.116 312.054 145.063 312.054 169.669H336.054C336.054 158.318 345.256 149.116 356.607 149.116V125.116ZM312.054 169.669C312.054 186.846 321.779 201.733 335.967 209.159L347.097 187.896C340.508 184.447 336.054 177.568 336.054 169.669H312.054ZM329.661 196.771L292.507 447.821L316.249 451.334L353.402 200.285L329.661 196.771ZM304.378 449.577C292.567 447.454 292.568 447.449 292.569 447.444C292.569 447.442 292.57 447.437 292.571 447.434C292.572 447.428 292.573 447.423 292.574 447.419C292.575 447.41 292.577 447.404 292.577 447.401C292.578 447.394 292.577 447.399 292.574 447.415C292.568 447.448 292.553 447.524 292.528 447.641C292.478 447.875 292.389 448.272 292.255 448.806C291.986 449.878 291.539 451.485 290.861 453.437C289.49 457.386 287.259 462.511 283.832 467.458C277.249 476.963 266.349 485.935 246.753 484.707L245.251 508.659C275.007 510.526 293.295 495.945 303.562 481.124C308.56 473.907 311.67 466.676 313.533 461.309C314.472 458.603 315.115 456.312 315.533 454.651C315.742 453.818 315.895 453.139 316.001 452.64C316.055 452.39 316.096 452.185 316.127 452.027C316.142 451.948 316.155 451.882 316.165 451.827C316.171 451.8 316.175 451.775 316.179 451.754C316.181 451.744 316.183 451.734 316.184 451.725C316.185 451.721 316.186 451.714 316.187 451.712C316.188 451.706 316.189 451.7 304.378 449.577ZM246.753 484.707C236.072 484.037 228.596 481.388 223.246 477.947C217.924 474.523 214.071 469.909 211.234 464.311C205.312 452.629 204.073 437.282 204.073 422.064H180.073C180.073 437.577 181.123 457.992 189.827 475.162C194.302 483.991 200.848 492.076 210.263 498.132C219.652 504.171 231.255 507.782 245.251 508.659L246.753 484.707ZM187.223 433.04L217.454 446.399L227.155 424.447L196.924 411.088L187.223 433.04ZM229.823 426.071C221.144 419.093 213.115 404.084 206.727 385.736C200.547 367.984 196.68 349.444 195.045 337.976L171.285 341.365C173.102 354.101 177.291 374.181 184.061 393.627C190.623 412.475 200.438 433.241 214.786 444.776L229.823 426.071ZM171.275 338.049L160.508 417.038L184.288 420.279L195.055 341.291L171.275 338.049ZM160.416 417.997C158.459 453.454 167.08 481.476 183.19 500.844C199.356 520.281 222.154 529.867 246.002 529.867L246.002 505.867C228.758 505.867 212.921 499.06 201.642 485.498C190.306 471.868 182.671 450.286 184.38 419.32L160.416 417.997ZM246.002 529.867C276.363 529.867 297.725 521.531 312.523 506.786C326.935 492.426 333.569 473.462 337.794 455.549L314.435 450.039C310.511 466.675 305.156 480.246 295.583 489.786C286.395 498.94 271.776 505.867 246.002 505.867L246.002 529.867ZM337.985 454.551L375.14 203.495L351.398 199.982L314.244 451.037L337.985 454.551ZM365.026 189.868L364.451 189.783L360.937 213.524L361.512 213.609L365.026 189.868ZM356.607 212.248C380.123 212.248 399.187 193.185 399.187 169.669H375.187C375.187 179.93 366.868 188.248 356.607 188.248V212.248ZM314.027 169.669C314.027 193.185 333.091 212.248 356.607 212.248V188.248C346.346 188.248 338.027 179.93 338.027 169.669H314.027ZM356.607 127.089C333.091 127.089 314.027 146.152 314.027 169.669H338.027C338.027 159.407 346.346 151.089 356.607 151.089V127.089ZM399.187 169.669C399.187 146.152 380.123 127.089 356.607 127.089V151.089C366.868 151.089 375.187 159.407 375.187 169.669H399.187Z" fill="white" mask="url(#path-4-outside-1_3_94)"/>
</svg>
