<svg width="664" height="664" viewBox="0 0 664 664" fill="none" xmlns="http://www.w3.org/2000/svg">
<circle cx="332" cy="332" r="332" fill="white"/>
<path d="M302.038 325.042L301.886 325.157L301.741 325.28C295.029 331.019 290.834 340.882 288.232 353.294L285.959 364.14L296.284 360.115C301.181 358.206 306.301 356.436 311.645 354.807C313.513 354.422 317.276 353.774 321.786 352.998C323.935 352.628 326.254 352.23 328.618 351.816C335.797 350.559 343.702 349.118 347.085 348.076L351.68 346.662L351.302 341.87L349.351 317.141L348.851 310.808L342.557 311.669L321.363 314.566L320.659 314.662L319.997 314.92C313.751 317.356 307.764 320.744 302.038 325.042Z" fill="#0BC197" stroke="#0BC197" stroke-width="12"/>
<path d="M321.805 344.594L320.511 353.236L329.041 351.339C336.774 349.62 344.535 348.129 352.325 346.865C361.358 345.4 372.062 343.72 384.441 341.826C394.937 340.219 407.655 338.439 422.603 336.484C420.16 351.219 417.96 365.263 416.003 378.615C413.662 394.022 411.857 406.458 410.592 415.91L410.59 415.926L410.587 415.942C408.715 430.524 407.638 444.12 407.368 456.721C407.061 468.938 407.412 479.235 408.475 487.53C410.027 499.634 413.683 509.487 420.428 515.753C427.388 522.218 437.947 524.528 450.5 524.211L458.175 524.017L456.132 516.616C455.6 514.689 455.028 512.472 454.415 509.96L453.292 501.197C451.897 490.318 451.079 475.756 450.87 457.425C450.964 439.137 452.077 416.832 454.221 390.482L454.225 390.43L454.229 390.377C454.837 380.834 455.689 370.79 456.786 360.243L456.788 360.224L456.79 360.205C457.711 350.757 458.718 341.064 459.809 331.127C464.724 330.257 469.663 329.008 474.625 327.388L474.755 327.345L474.882 327.297C482.534 324.406 489.355 318.35 495.511 310.008L503.848 298.709L489.92 300.494C484.627 301.173 479.162 301.725 473.523 302.151C470.193 302.21 466.769 302.335 463.252 302.527L470.732 245.884C473.839 224.603 477.006 205.018 480.232 187.128L480.235 187.113L480.237 187.098C483.429 168.881 486.41 153.99 489.177 142.393L491.193 133.944L482.578 135.049C476.779 135.792 471.792 138.58 467.705 142.979L467.617 143.074L467.533 143.172C464.219 147.064 461.584 151.265 459.674 155.776L465.048 158.052L459.674 155.776C457.992 159.747 456.659 163.122 455.698 165.872L455.677 165.932L455.657 165.993C453.57 172.401 450.859 183.159 447.531 198.071L447.523 198.107L447.515 198.143C444.441 212.765 441.073 229.881 437.414 249.484L437.406 249.527L437.398 249.571C434.317 267.536 431.14 285.775 427.867 304.287C417.543 304.612 406.697 305.237 395.329 306.159C382.345 306.891 368.679 308.178 354.333 310.017C349.72 310.608 345.126 311.351 340.552 312.246C337.19 312.681 333.84 313.207 330.502 313.826L326.295 314.606L325.661 318.837L321.805 344.594Z" fill="#0BC197" stroke="#0BC197" stroke-width="12"/>
<mask id="path-4-outside-1_3_70" maskUnits="userSpaceOnUse" x="162" y="127" width="244" height="410" fill="black">
<rect fill="white" x="162" y="127" width="244" height="410"/>
<path fill-rule="evenodd" clip-rule="evenodd" d="M367.171 204.424C382.447 201.535 394 188.116 394 172C394 153.775 379.225 139 361 139C342.775 139 328 153.775 328 172C328 184.711 335.186 195.743 345.718 201.256L308.053 455.755C308.053 455.755 298.906 506.645 248.875 503.508C198.845 500.37 194.206 459.016 194.206 427.864L224.852 441.406C201.509 422.639 188.674 368.874 185.175 344.337L174.26 424.411C170.544 491.746 207.219 524.983 248.875 524.983C305.782 524.983 321.827 494.038 330.089 459.016L367.754 204.51L367.171 204.424ZM392 172C392 189.121 378.121 203 361 203C343.879 203 330 189.121 330 172C330 154.879 343.879 141 361 141C378.121 141 392 154.879 392 172Z"/>
</mask>
<path fill-rule="evenodd" clip-rule="evenodd" d="M367.171 204.424C382.447 201.535 394 188.116 394 172C394 153.775 379.225 139 361 139C342.775 139 328 153.775 328 172C328 184.711 335.186 195.743 345.718 201.256L308.053 455.755C308.053 455.755 298.906 506.645 248.875 503.508C198.845 500.37 194.206 459.016 194.206 427.864L224.852 441.406C201.509 422.639 188.674 368.874 185.175 344.337L174.26 424.411C170.544 491.746 207.219 524.983 248.875 524.983C305.782 524.983 321.827 494.038 330.089 459.016L367.754 204.51L367.171 204.424ZM392 172C392 189.121 378.121 203 361 203C343.879 203 330 189.121 330 172C330 154.879 343.879 141 361 141C378.121 141 392 154.879 392 172Z" fill="#0BC197"/>
<path d="M367.171 204.424L364.94 192.633L365.414 216.295L367.171 204.424ZM345.718 201.256L357.588 203.012L358.837 194.578L351.283 190.624L345.718 201.256ZM308.053 455.755L319.864 457.878L319.897 457.695L319.924 457.512L308.053 455.755ZM248.875 503.508L249.626 491.531L248.875 503.508ZM194.206 427.864L199.056 416.888L182.206 409.441L182.206 427.864L194.206 427.864ZM224.852 441.406L220.002 452.382L232.371 432.054L224.852 441.406ZM185.175 344.337L197.055 342.643L173.285 342.717L185.175 344.337ZM174.26 424.411L162.37 422.79L162.305 423.268L162.278 423.75L174.26 424.411ZM330.089 459.016L341.768 461.771L341.885 461.276L341.959 460.773L330.089 459.016ZM367.754 204.51L379.624 206.267L381.381 194.396L369.511 192.64L367.754 204.51ZM369.401 216.215C390.239 212.273 406 193.99 406 172H382C382 182.243 374.655 190.796 364.94 192.633L369.401 216.215ZM406 172C406 147.147 385.853 127 361 127V151C372.598 151 382 160.402 382 172H406ZM361 127C336.147 127 316 147.147 316 172H340C340 160.402 349.402 151 361 151V127ZM316 172C316 189.35 325.822 204.386 340.153 211.887L351.283 190.624C344.551 187.1 340 180.072 340 172H316ZM333.847 199.499L296.183 453.998L319.924 457.512L357.588 203.012L333.847 199.499ZM308.053 455.755C296.243 453.632 296.244 453.626 296.245 453.621C296.245 453.62 296.246 453.615 296.246 453.612C296.247 453.606 296.248 453.601 296.249 453.596C296.251 453.587 296.252 453.581 296.253 453.578C296.254 453.572 296.253 453.578 296.249 453.595C296.243 453.628 296.227 453.706 296.202 453.826C296.151 454.066 296.06 454.469 295.924 455.013C295.65 456.104 295.195 457.737 294.506 459.722C293.113 463.734 290.845 468.945 287.361 473.975C280.662 483.647 269.561 492.781 249.626 491.531L248.124 515.484C278.219 517.372 296.708 502.63 307.09 487.641C312.147 480.341 315.293 473.024 317.179 467.593C318.129 464.856 318.78 462.538 319.201 460.858C319.413 460.016 319.568 459.33 319.675 458.825C319.729 458.573 319.771 458.365 319.802 458.207C319.818 458.127 319.831 458.06 319.841 458.005C319.846 457.977 319.85 457.953 319.854 457.932C319.856 457.921 319.858 457.911 319.86 457.902C319.861 457.898 319.862 457.892 319.862 457.89C319.863 457.884 319.864 457.878 308.053 455.755ZM249.626 491.531C238.776 490.851 231.169 488.159 225.718 484.653C220.294 481.164 216.37 476.463 213.482 470.765C207.46 458.885 206.206 443.292 206.206 427.864L182.206 427.864C182.206 443.587 183.271 464.248 192.076 481.617C196.601 490.544 203.218 498.717 212.735 504.838C222.225 510.942 233.959 514.596 248.124 515.484L249.626 491.531ZM189.355 438.84L220.002 452.382L229.702 430.43L199.056 416.888L189.355 438.84ZM232.371 432.054C223.534 424.949 215.382 409.694 208.905 391.09C202.636 373.083 198.714 354.278 197.055 342.643L173.295 346.032C175.135 358.934 179.38 379.28 186.239 398.981C192.89 418.085 202.827 439.097 217.333 450.759L232.371 432.054ZM173.285 342.717L162.37 422.79L186.15 426.032L197.065 345.958L173.285 342.717ZM162.278 423.75C160.296 459.662 169.029 488.025 185.327 507.621C201.681 527.284 224.745 536.983 248.875 536.983V512.983C231.349 512.983 215.247 506.063 203.779 492.274C192.254 478.418 184.508 456.495 186.242 425.072L162.278 423.75ZM248.875 536.983C279.622 536.983 301.232 528.542 316.194 513.633C330.771 499.109 337.487 479.92 341.768 461.771L318.409 456.261C314.429 473.134 308.992 486.929 299.254 496.632C289.902 505.951 275.035 512.983 248.875 512.983V536.983ZM341.959 460.773L379.624 206.267L355.883 202.754L318.218 457.259L341.959 460.773ZM369.511 192.64L368.927 192.553L365.414 216.295L365.997 216.381L369.511 192.64ZM361 215C384.748 215 404 195.748 404 172H380C380 182.493 371.493 191 361 191V215ZM318 172C318 195.748 337.252 215 361 215V191C350.507 191 342 182.493 342 172H318ZM361 129C337.252 129 318 148.252 318 172H342C342 161.507 350.507 153 361 153V129ZM404 172C404 148.252 384.748 129 361 129V153C371.493 153 380 161.507 380 172H404Z" fill="#0BC197" mask="url(#path-4-outside-1_3_70)"/>
</svg>
