<svg width="12" height="14" viewBox="0 0 12 14" fill="none" xmlns="http://www.w3.org/2000/svg">
<path d="M5.40255 6.54497C5.19491 6.62591 4.99393 6.7393 4.79963 6.88515C4.61126 7.0462 4.47107 7.34619 4.37906 7.78512C4.56594 7.71227 4.76097 7.645 4.96416 7.58332C5.1629 7.54089 6.03281 7.40666 6.24638 7.34093L6.17526 6.43932L5.40255 6.54497Z" fill="#099A86"/>
<path d="M5.60547 7.45542C5.89152 7.39183 6.17865 7.33665 6.46686 7.2899C6.79702 7.23635 7.18797 7.175 7.63971 7.10586C8.09145 7.03672 8.65443 6.95894 9.32863 6.87252C9.22008 7.51555 9.12385 8.1233 9.03995 8.69576C8.95464 9.25717 8.88902 9.70933 8.8431 10.0522C8.77564 10.5777 8.73709 11.0657 8.72744 11.5163C8.71638 11.9558 8.72927 12.3193 8.7661 12.6067C8.81994 13.0267 8.9425 13.3255 9.13379 13.5032C9.32508 13.6809 9.63909 13.7642 10.0758 13.7532C10.0548 13.6772 10.0324 13.5902 10.0086 13.4922L9.96614 13.1606C9.91372 12.7516 9.88369 12.2106 9.87606 11.5376C9.87947 10.8631 9.92044 10.0433 9.99897 9.07837C10.0214 8.72724 10.0527 8.35811 10.0929 7.97099C10.1318 7.57282 10.1747 7.16288 10.2218 6.74119C10.4428 6.71285 10.6666 6.6617 10.893 6.58774C11.118 6.50272 11.3358 6.31753 11.5464 6.03215C11.3474 6.05765 11.1423 6.07833 10.9308 6.0942C10.7291 6.0976 10.5169 6.10794 10.2945 6.12522L10.6023 3.79399C10.716 3.01549 10.8319 2.2985 10.9501 1.643C11.0669 0.976446 11.1764 0.42878 11.2787 0C11.124 0.0198345 10.9874 0.0935152 10.8689 0.221042C10.7615 0.347152 10.6776 0.481481 10.6172 0.62403C10.5569 0.766578 10.5103 0.884895 10.4774 0.978983C10.4048 1.20173 10.3079 1.58489 10.1866 2.12844C10.0749 2.65953 9.95247 3.28187 9.81926 3.99547C9.6971 4.70764 9.57083 5.43158 9.44045 6.16728C9.01479 6.17691 8.56291 6.20113 8.08481 6.23995C7.61635 6.26629 7.12239 6.31276 6.60292 6.37935C6.43713 6.4006 6.27205 6.42737 6.10767 6.45968C5.9867 6.47518 5.86617 6.49407 5.74606 6.51633L5.60547 7.45542Z" fill="#099A86"/>
<path fill-rule="evenodd" clip-rule="evenodd" d="M7.05187 2.39933C7.55903 2.28883 7.9388 1.83725 7.9388 1.29696C7.9388 0.673858 7.43368 0.168732 6.81057 0.168732C6.18747 0.168732 5.68234 0.673858 5.68234 1.29696C5.68234 1.71568 5.91044 2.08112 6.24915 2.27581L4.88759 11.476C4.88759 11.476 4.55406 13.3314 2.72995 13.217C0.905838 13.1026 0.736695 11.5949 0.736695 10.4591L1.85407 10.9528C1.00297 10.2686 0.535028 8.3083 0.407442 7.41369L0.00947891 10.3332C-0.126011 12.7882 1.21115 14 2.72995 14C4.80477 14 5.38978 12.8718 5.69099 11.5949L7.05187 2.39933ZM7.35383 1.29697C7.35383 1.59698 7.11063 1.84019 6.81061 1.84019C6.5106 1.84019 6.26739 1.59698 6.26739 1.29697C6.26739 0.996956 6.5106 0.753747 6.81061 0.753747C7.11063 0.753747 7.35383 0.996956 7.35383 1.29697Z" fill="#099A86"/>
</svg>
